<svg width="61" height="60" viewBox="0 0 61 60" fill="none" xmlns="http://www.w3.org/2000/svg">
<path d="M10.833 50C9.45801 50 8.28134 49.5108 7.30301 48.5325C6.32467 47.5542 5.83467 46.3767 5.83301 45V15C5.83301 13.625 6.32301 12.4483 7.30301 11.47C8.28301 10.4917 9.45967 10.0017 10.833 10H50.833C52.208 10 53.3855 10.49 54.3655 11.47C55.3455 12.45 55.8347 13.6267 55.833 15V45C55.833 46.375 55.3438 47.5525 54.3655 48.5325C53.3872 49.5125 52.2097 50.0017 50.833 50H10.833ZM30.833 32.5L10.833 20V45H50.833V20L30.833 32.5ZM30.833 27.5L50.833 15H10.833L30.833 27.5ZM10.833 20V15V45V20Z" fill="white"/>
</svg>
