
<svg width="119" height="32" viewBox="0 0 119 32" fill="none" xmlns="http://www.w3.org/2000/svg">
	<path d="M36.9328 5.4794L36.3789 3.7762C36.243 3.35553 36.128 2.88612 36.0235 2.48597H36.0026C35.9007 2.88612 35.7936 3.36579 35.6708 3.7762L35.1273 5.4794H36.9328ZM34.9183 6.43104L34.3122 8.39075H32.9849L35.2423 1.48047H36.8805L39.1667 8.39075H37.7898L37.1522 6.43104" fill="white"/>
	<path d="M41.0868 3.40039L41.9124 5.92954C42.0587 6.37074 42.1606 6.77089 42.2547 7.1813H42.286C42.3801 6.77089 42.4951 6.381 42.6309 5.92954L43.4461 3.40039H44.7917L42.8504 8.39201H41.5884L39.6968 3.40039" fill="white"/>
	<path d="M48.6668 5.94672C47.7575 5.93646 46.8901 6.12114 46.8901 6.8804C46.8901 7.37289 47.2141 7.59862 47.6217 7.59862C48.1416 7.59862 48.51 7.27029 48.6328 6.91118C48.6668 6.81884 48.6668 6.7265 48.6668 6.63415V5.94672ZM49.9183 7.18821C49.9183 7.63966 49.9392 8.08085 50.0019 8.38609H48.8418L48.7504 7.83461H48.7164C48.416 8.22193 47.883 8.49896 47.2141 8.49896C46.1899 8.49896 45.6177 7.77304 45.6177 7.01378C45.6177 5.76203 46.7542 5.1182 48.6328 5.12846V5.04638C48.6328 4.71805 48.4996 4.17426 47.6008 4.17426C47.0991 4.17426 46.5766 4.32816 46.2317 4.54363L45.9809 3.72281C46.3571 3.49708 47.0155 3.28418 47.8202 3.28418C49.448 3.28418 49.9183 4.29738 49.9183 5.39523" fill="white"/>
	<path d="M51.734 3.39729H53.0169V8.3889H51.734V3.39729ZM52.369 2.67907C51.9431 2.67907 51.6609 2.37126 51.6609 2.00189C51.6609 1.612 51.9509 1.31445 52.382 1.31445C52.8183 1.31445 53.0901 1.612 53.1005 2.00189C53.1005 2.37126 52.8183 2.67907 52.382 2.67907" fill="white"/>
	<path d="M54.8643 8.39148H56.1497V1.10156H54.8643V8.39148Z" fill="white"/>
	<path d="M60.7015 5.94672C59.7922 5.93646 58.9248 6.12114 58.9248 6.8804C58.9248 7.37289 59.2488 7.59862 59.6563 7.59862C60.1789 7.59862 60.5447 7.27029 60.6701 6.91118C60.7015 6.81884 60.7015 6.7265 60.7015 6.63415V5.94672ZM61.953 7.18821C61.953 7.63966 61.9739 8.08085 62.0366 8.38609H60.8791L60.7851 7.83461H60.7537C60.4506 8.22193 59.9176 8.49896 59.2488 8.49896C58.2272 8.49896 57.6523 7.77304 57.6523 7.01378C57.6523 5.76203 58.7915 5.1182 60.6701 5.12846V5.04638C60.6701 4.71805 60.5342 4.17426 59.6354 4.17426C59.1338 4.17426 58.6112 4.32816 58.269 4.54363L58.0181 3.72281C58.3944 3.49708 59.0502 3.28418 59.8549 3.28418C61.4827 3.28418 61.953 4.29738 61.953 5.39523" fill="white"/>
	<path d="M65.0543 6.32917C65.0543 6.43177 65.0648 6.53437 65.0857 6.62671C65.2216 7.13973 65.671 7.5091 66.2223 7.5091C67.027 7.5091 67.5182 6.88322 67.5182 5.87002C67.5182 4.98764 67.0897 4.26942 66.2327 4.26942C65.7102 4.26942 65.232 4.63879 65.0961 5.19284C65.0752 5.28518 65.0543 5.39805 65.0543 5.52117V6.32917ZM63.7689 1.10156H65.0543V4.08473H65.0752C65.3888 3.6025 65.9401 3.287 66.703 3.287C67.9467 3.287 68.8324 4.3002 68.822 5.81872C68.822 7.6117 67.6645 8.50434 66.5149 8.50434C65.8565 8.50434 65.2738 8.25809 64.908 7.64248H64.8871L64.8244 8.39148H63.7271C63.748 8.05289 63.7689 7.49884 63.7689 6.99608" fill="white"/>
	<path d="M70.3347 8.39148H71.6176V1.10156H70.3347V8.39148Z" fill="white"/>
	<path d="M76.6183 5.36445C76.6287 4.90274 76.4197 4.14348 75.5653 4.14348C74.771 4.14348 74.4366 4.85143 74.3844 5.36445H76.6183ZM74.3844 6.24426C74.4157 7.14717 75.1368 7.53706 75.952 7.53706C76.5451 7.53706 76.9632 7.44472 77.3603 7.31133L77.5484 8.17063C77.1095 8.35788 76.5033 8.4887 75.7744 8.4887C74.1231 8.4887 73.1511 7.49602 73.1511 5.9698C73.1511 4.58467 74.0081 3.28418 75.6385 3.28418C77.2872 3.28418 77.8306 4.61545 77.8306 5.7133C77.8306 5.94928 77.8097 6.13397 77.7888 6.24426" fill="white"/>
	<path d="M84.2084 7.58836C84.9374 7.58836 85.4495 6.89066 85.4495 5.87746C85.4495 5.09768 85.0941 4.19478 84.2189 4.19478C83.3096 4.19478 82.9438 5.0669 82.9438 5.89798C82.9438 6.85988 83.435 7.58836 84.1953 7.58836H84.2084ZM84.1666 8.50152C82.7348 8.50152 81.6191 7.53706 81.6191 5.92876C81.6191 4.28712 82.7139 3.28418 84.2502 3.28418C85.763 3.28418 86.7768 4.32816 86.7768 5.84668C86.7768 7.6807 85.4599 8.50152 84.1771 8.50152" fill="white"/>
	<path d="M88.287 4.88222C88.287 4.30764 88.2687 3.82541 88.2478 3.39448H89.3635L89.4262 4.14348H89.4575C89.6874 3.75359 90.2414 3.28418 91.0879 3.28418C91.9736 3.28418 92.8933 3.84593 92.8933 5.42601V8.38609H91.6078V5.56965C91.6078 4.85143 91.3361 4.30764 90.6385 4.30764C90.1264 4.30764 89.7711 4.66675 89.6352 5.04638C89.5934 5.14898 89.5725 5.30289 89.5725 5.44653V8.38609H88.287" fill="white"/>
	<path d="M98.8112 2.11523V3.3952H100.031V4.33915H98.8112V6.53228C98.8112 7.14789 98.9784 7.4557 99.467 7.4557C99.6969 7.4557 99.8223 7.44544 99.9686 7.4044L99.9895 8.35604C99.8014 8.43042 99.4565 8.48942 99.0594 8.48942C98.5812 8.48942 98.1945 8.33552 97.9542 8.08158C97.672 7.79429 97.5466 7.33258 97.5466 6.67592V4.33915H96.8254V3.3952H97.5466V2.46408" fill="white"/>
	<path d="M101.46 1.10156H102.746V4.07447H102.767C102.924 3.83849 103.143 3.64354 103.404 3.51016C103.666 3.36908 103.966 3.287 104.29 3.287C105.158 3.287 106.064 3.84875 106.064 5.44935V8.39148H104.781V5.58273C104.781 4.86451 104.51 4.31046 103.799 4.31046C103.3 4.31046 102.945 4.63879 102.798 5.01842C102.756 5.13128 102.746 5.26466 102.746 5.39805V8.39148H101.46" fill="white"/>
	<path d="M111.034 5.36445C111.044 4.90274 110.835 4.14348 109.978 4.14348C109.184 4.14348 108.852 4.85143 108.8 5.36445H111.034ZM108.8 6.24426C108.831 7.14717 109.55 7.53706 110.365 7.53706C110.961 7.53706 111.379 7.44472 111.773 7.31133L111.964 8.17063C111.525 8.35788 110.919 8.4887 110.187 8.4887C108.539 8.4887 107.567 7.49602 107.567 5.9698C107.567 4.58467 108.424 3.28418 110.051 3.28418C111.7 3.28418 112.244 4.61545 112.244 5.7133C112.244 5.94928 112.223 6.13397 112.202 6.24426" fill="white"/>
	<path d="M18.9436 15.0916C18.9096 11.6724 21.7941 10.0077 21.9274 9.93071C20.2944 7.59137 17.7626 7.2733 16.8717 7.24765C14.7475 7.02962 12.686 8.4994 11.6043 8.4994C10.4991 8.4994 8.82952 7.27073 7.03454 7.30665C4.71962 7.34256 2.55624 8.65843 1.37004 10.6977C-1.07552 14.8608 0.748195 20.9759 3.09447 24.3412C4.27022 25.988 5.63932 27.8297 7.43429 27.763C9.19008 27.6912 9.84589 26.6652 11.9649 26.6652C14.0655 26.6652 14.6821 27.763 16.5137 27.722C18.3975 27.6912 19.5837 26.0675 20.715 24.4028C22.0737 22.5149 22.6172 20.6552 22.6381 20.5603C22.5936 20.5449 18.9802 19.1906 18.9436 15.0916Z" fill="white"/>
	<path d="M15.4848 5.0354C16.428 3.87599 17.0785 2.29591 16.8957 0.695312C15.5292 0.756874 13.8204 1.62387 12.8354 2.75762C11.9653 3.758 11.1841 5.39708 11.3879 6.93612C12.9242 7.04898 14.4997 6.17686 15.4848 5.0354Z" fill="white"/>
	<path d="M40.1333 21.6178L38.921 17.942C38.793 17.5675 38.5526 16.6826 38.1973 15.2923H38.1555C38.0144 15.89 37.7845 16.7749 37.4735 17.942L36.2821 21.6178H40.1333ZM44.3242 27.4892H41.8761L40.5357 23.3543H35.8797L34.6021 27.4892H32.2192L36.8386 13.4121H39.6866" fill="white"/>
	<path d="M53.8558 22.3709C53.8558 21.3808 53.6284 20.5677 53.1738 19.9264C52.6774 19.2595 52.0111 18.9235 51.175 18.9235C50.6081 18.9235 50.0907 19.1107 49.6335 19.4775C49.1737 19.8495 48.8706 20.3317 48.7269 20.9319C48.6563 21.2089 48.6224 21.4372 48.6224 21.6168V23.3097C48.6224 24.0485 48.8523 24.6718 49.3121 25.1797C49.7746 25.6901 50.3729 25.9415 51.1097 25.9415C51.9772 25.9415 52.6513 25.6157 53.1294 24.9591C53.6154 24.305 53.8558 23.4431 53.8558 22.3709ZM56.1968 22.2863C56.1968 24.0126 55.7213 25.3797 54.7702 26.3801C53.9185 27.2728 52.8603 27.7165 51.6009 27.7165C50.2371 27.7165 49.2599 27.2343 48.6642 26.275H48.6224V31.6231H46.3231V20.678C46.3231 19.593 46.297 18.4797 46.2395 17.3357H48.2592L48.3872 18.9466H48.4316C49.1972 17.7333 50.3599 17.1279 51.9197 17.1279C53.1372 17.1279 54.1588 17.6025 54.9714 18.549C55.7866 19.498 56.1968 20.7421 56.1968 22.2863Z" fill="white"/>
	<path d="M65.7467 22.3709C65.7467 21.3808 65.5194 20.5677 65.0648 19.9264C64.5683 19.2595 63.9021 18.9235 63.066 18.9235C62.499 18.9235 61.9843 19.1107 61.5244 19.4775C61.062 19.8495 60.7641 20.3317 60.623 20.9319C60.5499 21.2089 60.5159 21.4372 60.5159 21.6168V23.3097C60.5159 24.0485 60.7432 24.6718 61.2031 25.1797C61.6655 25.6901 62.2639 25.9415 63.0033 25.9415C63.8681 25.9415 64.5422 25.6157 65.023 24.9591C65.5037 24.305 65.7467 23.4431 65.7467 22.3709ZM68.0851 22.2863C68.0851 24.0126 67.6122 25.3797 66.6612 26.3801C65.8094 27.2728 64.7538 27.7165 63.4919 27.7165C62.1306 27.7165 61.1534 27.2343 60.5551 26.275H60.5159V31.6231H58.2167V20.678C58.2167 19.593 58.1879 18.4797 58.1331 17.3357H60.1527L60.2808 18.9466H60.3252C61.0881 17.7333 62.2508 17.1279 63.8106 17.1279C65.0308 17.1279 66.0472 17.6025 66.865 18.549C67.6801 19.498 68.0851 20.7421 68.0851 22.2863Z" fill="white"/>
	<path d="M81.384 23.5419C81.384 24.7372 80.9607 25.712 80.109 26.4661C79.1736 27.2869 77.875 27.6973 76.2055 27.6973C74.6613 27.6973 73.4229 27.4049 72.4849 26.8201L73.0179 24.9425C74.029 25.5401 75.1342 25.8377 76.3413 25.8377C77.2062 25.8377 77.8803 25.6478 78.3636 25.2656C78.8444 24.8809 79.0847 24.3679 79.0847 23.7266C79.0847 23.1572 78.8888 22.6724 78.4916 22.2825C78.0945 21.8926 77.4335 21.5309 76.5112 21.1949C74.0003 20.274 72.7461 18.9274 72.7461 17.1575C72.7461 16.0006 73.1851 15.0516 74.0656 14.3128C74.9435 13.5741 76.114 13.2021 77.5746 13.2021C78.8809 13.2021 79.9652 13.4279 80.8301 13.8716L80.2553 15.7108C79.4479 15.2799 78.5334 15.0618 77.5118 15.0618C76.7019 15.0618 76.0722 15.2568 75.6202 15.6467C75.2387 15.9955 75.0454 16.4213 75.0454 16.9215C75.0454 17.4781 75.2622 17.9373 75.7038 18.2989C76.0853 18.6324 76.7803 18.9941 77.7888 19.3865C79.022 19.8739 79.9287 20.4433 80.5113 21.0974C81.0914 21.7515 81.384 22.5672 81.384 23.5419Z" fill="white"/>
	<path d="M88.9767 19.0291H86.4449V23.9566C86.4449 25.2109 86.8917 25.8368 87.7879 25.8368C88.1955 25.8368 88.5378 25.8034 88.8069 25.7342L88.8696 27.4451C88.4202 27.6144 87.8219 27.6965 87.0851 27.6965C86.1784 27.6965 85.4678 27.4246 84.9557 26.8833C84.4462 26.3395 84.1901 25.4264 84.1901 24.1464V19.0291H82.6799V17.3362H84.1901V15.4791L86.4449 14.8096V17.3362H88.9767" fill="white"/>
	<path d="M98.0195 22.4017C98.0195 21.4655 97.8131 20.6652 97.4003 19.9931C96.9221 19.1825 96.2324 18.7773 95.3388 18.7773C94.4165 18.7773 93.7136 19.1825 93.2329 19.9931C92.8201 20.6652 92.6189 21.4808 92.6189 22.4453C92.6189 23.3816 92.8201 24.1819 93.2329 24.8513C93.7293 25.6619 94.4243 26.0672 95.3205 26.0672C96.1958 26.0672 96.8855 25.6568 97.382 24.8308C97.8079 24.1485 98.0195 23.338 98.0195 22.4017ZM100.402 22.3299C100.402 23.8894 99.9503 25.1694 99.0411 26.1723C98.09 27.2035 96.8281 27.7165 95.2552 27.7165C93.7345 27.7165 92.5274 27.2215 91.626 26.2339C90.7272 25.2464 90.2778 23.9997 90.2778 22.4966C90.2778 20.9217 90.7403 19.634 91.6704 18.6336C92.598 17.6281 93.8495 17.1279 95.4224 17.1279C96.9404 17.1279 98.1632 17.623 99.0829 18.6105C99.9634 19.575 100.402 20.8114 100.402 22.3299Z" fill="white"/>
	<path d="M107.87 19.3211C107.642 19.28 107.402 19.2595 107.146 19.2595C106.339 19.2595 105.711 19.5596 105.273 20.1573C104.891 20.6882 104.7 21.3552 104.7 22.1606V27.4882H102.404L102.422 20.5343C102.422 19.3621 102.393 18.2976 102.338 17.3357H104.34L104.423 19.28H104.483C104.726 18.6131 105.111 18.0744 105.633 17.6717C106.145 17.31 106.699 17.1279 107.295 17.1279C107.506 17.1279 107.7 17.1433 107.87 17.169" fill="white"/>
	<path d="M115.951 21.3494C115.967 20.6825 115.818 20.1028 115.507 19.6154C115.11 18.9896 114.496 18.6741 113.675 18.6741C112.926 18.6741 112.314 18.9819 111.846 19.5949C111.465 20.0823 111.235 20.6671 111.17 21.3494H115.951ZM118.141 21.9343C118.141 22.3395 118.115 22.6781 118.06 22.9577H111.17C111.193 23.9607 111.528 24.7276 112.168 25.256C112.748 25.7306 113.5 25.964 114.423 25.964C115.442 25.964 116.372 25.8049 117.21 25.4843L117.571 27.0516C116.591 27.4671 115.436 27.68 114.101 27.68C112.5 27.68 111.24 27.2157 110.326 26.2872C109.414 25.3638 108.954 24.1197 108.954 22.5601C108.954 21.0288 109.377 19.754 110.232 18.7382C111.123 17.6506 112.33 17.1094 113.845 17.1094C115.335 17.1094 116.466 17.6506 117.231 18.7382C117.84 19.6001 118.141 20.6671 118.141 21.9343Z" fill="white"/>
</svg>
