<svg width="67" height="82" viewBox="0 0 67 82" fill="none" xmlns="http://www.w3.org/2000/svg">
<g clip-path="url(#clip0_118_245)">
<path fill-rule="evenodd" clip-rule="evenodd" d="M51.3968 38.4317C47.353 24.5233 34.4565 19.0957 19.6735 19.0957C16.172 19.1689 12.6797 19.491 9.2222 20.0594C8.28537 20.1952 1.40954 21.4831 0.468416 21.8905C0 22.0833 0.283628 21.9431 0 22.2191C3.57543 24.2561 5.83586 28.5929 7.52903 33.0742C9.32104 37.4855 10.8294 41.8267 12.8922 45.905C16.5664 53.0192 25.0366 59.0469 36.2399 59.0469C42.643 59.0469 45.561 58.2365 51.3066 56.4755C49.4243 56.3353 48.1996 56.6069 46.1497 56.1995C43.323 55.6354 40.6546 54.4384 38.337 52.695C36.0723 51.0654 35.4191 50.2506 33.9107 48.5509C31.1561 45.6948 27.7698 39.0494 27.2025 35.1725C30.7822 35.7201 31.8136 35.0411 36.7169 36.6006C41.7921 38.2346 46.038 41.9625 48.7496 46.3782C50.0394 48.3787 51.1129 50.5157 51.9512 52.7519C52.0285 52.9197 52.1236 53.0784 52.2348 53.225L52.6087 53.5667C53.2877 49.1598 52.5313 42.5101 51.3968 38.4317ZM30.5888 56.4886C21.6503 54.583 16.3817 49.1598 12.8922 41.9625C12.2261 40.403 10.159 35.9873 9.97425 34.2964C10.5415 35.3784 11.1002 36.7364 11.7663 37.9586C17.976 49.4971 22.3078 45.962 26.4548 49.9659C27.8643 51.3282 29.8454 53.9741 30.5888 56.4886Z" fill="#64DD17"/>
<path fill-rule="evenodd" clip-rule="evenodd" d="M47.8213 27.0338L48.9515 28.5276C49.8926 24.7253 51.8694 21.8078 53.8462 19.5036C52.716 21.9436 49.9786 25.8774 50.2708 30.0871C50.3611 30.9632 50.8338 31.4013 51.2119 32.1241C51.9281 33.3866 52.4964 34.7304 52.9051 36.128C52.9996 36.0623 52.9996 35.9265 53.0942 35.9922L54.508 33.3638C54.8819 32.6848 55.5394 31.4626 56.1969 30.9851C58.741 33.7712 60.7178 42.1864 58.8355 47.4081C58.2726 49.0376 57.2369 50.803 56.2957 51.6178C58.5519 50.7417 62.3121 46.935 63.6357 45.0469C65.9535 41.9458 67.2109 38.1561 67.2154 34.2575C67.1166 25.8116 59.8712 18.7457 60.9068 12.1748C59.2094 12.8538 54.9764 16.9234 53.3735 18.6187C51.4956 20.7214 49.1406 23.779 47.8213 27.0338Z" fill="#FABA00"/>
<path fill-rule="evenodd" clip-rule="evenodd" d="M52.0583 55.3985C52.0583 52.3321 48.1004 47.325 45.5607 45.288C42.0391 42.3444 37.59 40.802 33.0381 40.9469C33.889 45.0296 37.387 49.5635 39.5357 51.6005C42.5439 54.5837 46.4116 56.555 52.0583 55.3985Z" fill="#FABA00"/>
<path fill-rule="evenodd" clip-rule="evenodd" d="M54.977 52.2094C57.0483 50.9872 58.2731 47.4609 58.4622 44.5434C58.5524 42.099 57.3277 37.2146 55.8236 36.0625C52.9057 39.1289 54.1046 39.2472 54.5988 42.9138C54.977 46.1686 54.8825 48.8845 54.977 52.2094Z" fill="#64DD17"/>
<path d="M9.35938 73.0657C9.12013 73.0737 8.88187 73.0307 8.65986 72.9395C8.43786 72.8482 8.237 72.7107 8.07016 72.5357C7.75278 72.1334 7.57975 71.6326 7.57975 71.1164C7.57975 70.6001 7.75278 70.0993 8.07016 69.697C8.237 69.522 8.43786 69.3845 8.65986 69.2932C8.88187 69.202 9.12013 69.159 9.35938 69.167C9.68944 69.1734 10.0133 69.2592 10.3046 69.4176C10.5959 69.5759 10.8463 69.8023 11.0354 70.0781L12.6555 68.6019C12.2816 68.0951 11.7857 67.6952 11.2159 67.441C10.5904 67.1621 9.91304 67.0246 9.23046 67.038C8.47154 67.0238 7.72116 67.203 7.04738 67.5593C6.41603 67.8839 5.88728 68.3834 5.52181 69.0005C5.14814 69.6398 4.9562 70.3723 4.96744 71.1164C4.95413 71.8579 5.14628 72.5882 5.52181 73.2234C5.88435 73.8451 6.41366 74.3482 7.04738 74.6734C7.72265 75.0256 8.472 75.2045 9.23046 75.1947C9.91268 75.204 10.5892 75.0667 11.2159 74.7917C11.7848 74.536 12.2804 74.1364 12.6555 73.6308L11.0354 72.1546C10.8456 72.4297 10.595 72.6554 10.3039 72.8137C10.0128 72.972 9.68923 73.0583 9.35938 73.0657Z" fill="#64DD17"/>
<path d="M19.0551 67.2129L16.4251 71.2693V67.2129H13.8896V75.0104H16.3306L18.952 70.9671V75.0104H21.4874V67.2129H19.0551Z" fill="#64DD17"/>
<path d="M22.7373 67.2129V69.2543H24.9805V75.0104H27.5031V69.2543H29.7464V67.2129H22.7373Z" fill="#64DD17"/>
<path d="M36.1887 67.2129L33.5544 71.2693V67.2129H31.0146V75.0104H33.4556L36.077 70.9671V75.0104H38.6124V67.2129H36.1887Z" fill="#64DD17"/>
<path d="M48.1308 69.0086C47.756 68.3924 47.2243 67.8912 46.5923 67.5587C45.9015 67.213 45.1422 67.0332 44.3727 67.0332C43.6032 67.0332 42.8439 67.213 42.1531 67.5587C41.5176 67.8862 40.9847 68.3885 40.6146 69.0086C40.2461 69.6457 40.0518 70.3718 40.0518 71.1113C40.0518 71.8509 40.2461 72.577 40.6146 73.214C40.9847 73.8342 41.5176 74.3365 42.1531 74.664C42.8439 75.0097 43.6032 75.1895 44.3727 75.1895C45.1422 75.1895 45.9015 75.0097 46.5923 74.664C47.0646 74.4028 47.4804 74.0472 47.8149 73.6186C48.1494 73.19 48.3958 72.6971 48.5394 72.1693C48.683 71.6415 48.7208 71.0896 48.6506 70.5466C48.5804 70.0035 48.4036 69.4805 48.1308 69.0086ZM45.8575 72.1408C45.7147 72.4196 45.501 72.6542 45.2386 72.8198C44.98 72.9806 44.6821 73.0641 44.3792 73.0607C44.0719 73.0665 43.7693 72.9831 43.5068 72.8202C43.2443 72.6573 43.0326 72.4217 42.8966 72.1408C42.7437 71.82 42.6643 71.468 42.6643 71.1113C42.6643 70.7547 42.7437 70.4027 42.8966 70.0819C43.0311 69.8 43.2431 69.5641 43.5068 69.4029C43.7662 69.2437 44.0635 69.1604 44.3663 69.162C44.6692 69.1585 44.9671 69.242 45.2257 69.4029C45.49 69.5661 45.7044 69.8012 45.8446 70.0819C45.9974 70.4027 46.0768 70.7547 46.0768 71.1113C46.0768 71.468 45.9974 71.82 45.8446 72.1408H45.8575Z" fill="#64DD17"/>
<path d="M54.6375 64.8564C54.6551 65.0523 54.5964 65.2475 54.4742 65.3996C54.326 65.5229 54.1359 65.5812 53.9456 65.5617C53.8527 65.5719 53.7587 65.5628 53.6693 65.5349C53.5799 65.5071 53.497 65.4611 53.4256 65.3996C53.3168 65.2412 53.2651 65.0493 53.2795 64.8564H51.5605C51.541 65.1221 51.5812 65.3888 51.678 65.6363C51.7748 65.8837 51.9257 66.1054 52.1192 66.2845C52.6534 66.6555 53.2975 66.8259 53.9413 66.7664C54.5903 66.8238 55.2391 66.6538 55.7806 66.2845C55.9756 66.1063 56.1281 65.885 56.2264 65.6374C56.3247 65.3899 56.3663 65.1228 56.3478 64.8564H54.6375ZM55.325 67.2132L52.6907 71.2697V67.2132H50.1553V75.0107H52.5962L55.2176 70.9674V75.0107H57.7488V67.2132H55.325Z" fill="#64DD17"/>
<path d="M60.5246 67.2129L60.4258 70.253C60.4161 70.7395 60.3803 71.225 60.3183 71.7074C60.3071 72.0142 60.2052 72.3104 60.0261 72.5572C59.91 72.6779 59.7695 72.7713 59.6144 72.8311C59.4593 72.8908 59.2933 72.9155 59.1279 72.9033L58.999 75.0104C60.1292 75.1812 61.2895 74.9534 61.6505 74.5723C62.0523 74.0985 62.3185 73.5211 62.4198 72.9033C62.5825 71.9998 62.6702 71.0839 62.6819 70.1654V69.2893H64.461V75.0454H66.9965V67.2479L60.5246 67.2129Z" fill="#64DD17"/>
</g>
<defs>
<clipPath id="clip0_118_245">
<rect width="67" height="82" fill="white"/>
</clipPath>
</defs>
</svg>
