<svg width="254" height="51" viewBox="0 0 254 51" fill="none" xmlns="http://www.w3.org/2000/svg">
<g clip-path="url(#clip0_113_2)">
<path d="M32.501 48.1444C22.957 46.0099 17.3474 40.0538 13.6692 32.1957C12.9718 30.4786 10.784 25.6373 10.5932 23.807C11.1893 24.9994 11.7855 26.478 12.4889 27.8195C19.0762 40.4294 23.7141 36.6136 28.1195 41.0077C30.1024 43.0303 31.6005 45.4766 32.501 48.1622M54.8441 28.6184C50.6056 13.415 36.8469 7.39921 21.0374 7.29785C17.2934 7.35816 13.5582 7.68291 9.85995 8.26968C8.84652 8.40681 1.5141 9.76617 0.476825 10.2074C-0.0239257 10.422 0.280102 10.2789 -0.0239258 10.577C3.79132 12.8188 6.17585 17.5766 7.96425 22.5013C9.84802 27.3246 11.4337 32.0705 13.6215 36.5242C17.4964 44.3226 26.5278 50.9764 38.5041 51.0539C45.3477 51.0896 48.4714 50.2251 54.6295 48.3411C52.6145 48.1801 51.309 48.4603 49.0914 48.0072C46.0489 47.3567 43.1946 46.0212 40.7456 44.102C38.974 42.8139 37.3909 41.2848 36.0421 39.5589C33.1747 36.3692 29.5979 29.1013 29.0137 24.8742C32.8349 25.4704 33.9437 24.7549 39.1479 26.4899C44.5727 28.2786 49.0854 32.4103 51.9767 37.2217C53.3513 39.4283 54.4921 41.7721 55.3806 44.2153C55.4661 44.3989 55.5679 44.5745 55.6846 44.74L56.0781 45.1096C56.8173 40.3042 56.0364 33.0423 54.8441 28.6184Z" fill="#64DD17"/>
<path d="M51.1182 16.1275L52.3104 17.7612C53.2817 14.1203 55.095 10.7587 57.6041 7.94751C56.4118 10.6066 53.4312 14.8815 53.7113 19.4723C53.8067 20.4382 54.3075 20.8853 54.7069 21.7021C55.4686 23.0897 56.0686 24.56 56.4953 26.0843C56.5966 26.0127 56.5966 25.8637 56.698 25.9352L58.2241 23.0555C58.6354 22.3162 59.3448 20.9926 60.0542 20.4739C62.7547 23.5325 64.8232 32.7261 62.7666 38.414C62.1705 40.2026 61.0378 42.1045 60.0244 42.9869C62.4447 42.0389 66.4984 37.9191 67.9172 35.8324C70.4274 32.4266 71.7925 28.3121 71.8159 24.081C71.7622 14.9053 64.0542 7.15455 65.2048 0C63.4164 0.727379 58.8321 5.13935 57.1093 6.98165C55.0824 9.26514 52.5489 12.5801 51.148 16.1275" fill="#FABA00"/>
<path d="M55.4699 47.1006C55.4699 43.7678 51.2969 38.2588 48.5845 36.023C44.8858 32.806 40.1196 31.086 35.2192 31.1996C36.1015 35.6474 39.7975 40.6317 42.0986 42.8675C45.3058 46.1526 49.4191 48.3228 55.4699 47.1006Z" fill="#FABA00"/>
<path d="M58.6054 43.6425C60.829 42.3249 62.1822 38.4852 62.3849 35.2955C62.4982 32.6304 61.1926 27.2884 59.6189 26.0244C56.4772 29.3334 57.7828 29.4884 58.2656 33.495C58.6472 37.0722 58.5279 40.0116 58.6054 43.6306" fill="#64DD17"/>
<path d="M84.4064 47.2735C82.614 46.3084 81.1258 44.8633 80.1083 43.1C79.0486 41.2319 78.5131 39.1123 78.5583 36.965C78.5275 34.8307 79.0733 32.7276 80.1381 30.8777C81.1566 29.109 82.6523 27.6627 84.4541 26.7042C86.3588 25.6968 88.4876 25.1881 90.6419 25.2256C92.5809 25.2025 94.5008 25.6098 96.2634 26.418C97.8879 27.1826 99.2896 28.3505 100.335 29.8104L95.721 34.0733C94.3856 32.3086 92.8118 31.4262 90.9996 31.4262C90.3127 31.3981 89.6278 31.5189 88.9919 31.7803C88.356 32.0417 87.7841 32.4375 87.3155 32.9405C86.343 34.077 85.8418 35.5424 85.9146 37.0365C85.8371 38.53 86.3317 39.9969 87.2976 41.1385C87.7611 41.6461 88.3299 42.0463 88.9642 42.311C89.5985 42.5756 90.283 42.6984 90.9698 42.6707C92.782 42.6707 94.3598 41.7963 95.7031 40.0474L100.299 44.3342C99.2423 45.7731 97.8372 46.9199 96.2157 47.667C94.4525 48.446 92.5392 48.8266 90.6121 48.7819C88.4575 48.8066 86.3314 48.2878 84.4302 47.2735" fill="#64DD17"/>
<path d="M103.822 25.8037L110.988 25.8216L110.964 37.5193L118.439 25.8395L125.301 25.8574L125.247 48.3525L118.076 48.3346L118.106 36.6667L110.66 48.3167L103.769 48.2988L103.822 25.8037Z" fill="#64DD17"/>
<path d="M148.681 31.7956L142.35 31.7777L142.308 48.3941L135.143 48.3763L135.179 31.7598L128.842 31.7419L128.86 25.8633L148.699 25.911L148.681 31.7956Z" fill="#64DD17"/>
<path d="M152.276 25.9229L159.441 25.9407L159.417 37.6384L166.887 25.9586L173.748 25.9765L173.701 48.4716L166.529 48.4537L166.553 36.7858L159.113 48.4358L152.222 48.4179L152.276 25.9229Z" fill="#64DD17"/>
<path d="M192.497 42.2057C193.249 41.7279 193.853 41.051 194.244 40.2501C194.672 39.3148 194.894 38.298 194.894 37.269C194.894 36.2401 194.672 35.2233 194.244 34.288C193.852 33.4866 193.251 32.8066 192.503 32.3205C191.769 31.8551 190.916 31.6128 190.047 31.6229C189.178 31.6114 188.323 31.8494 187.585 32.3086C186.834 32.788 186.23 33.4645 185.838 34.2641C185.41 35.1995 185.188 36.2163 185.188 37.2452C185.188 38.2741 185.41 39.2909 185.838 40.2263C186.231 41.0282 186.835 41.7083 187.585 42.1938C188.324 42.6458 189.174 42.885 190.041 42.885C190.908 42.885 191.757 42.6458 192.497 42.1938M183.752 47.4881C181.945 46.5253 180.441 45.0807 179.406 43.3146C178.374 41.4584 177.834 39.3684 177.839 37.2443C177.845 35.1202 178.394 33.0329 179.436 31.1817C180.476 29.4134 181.987 27.9686 183.799 27.0082C185.742 26.015 187.892 25.4971 190.074 25.4971C192.255 25.4971 194.406 26.015 196.348 27.0082C198.16 27.9798 199.665 29.4375 200.694 31.2175C201.726 33.0696 202.268 35.1547 202.268 37.275C202.268 39.3953 201.726 41.4804 200.694 43.3325C199.65 45.0999 198.137 46.5442 196.324 47.506C194.378 48.4918 192.227 49.0026 190.046 48.9964C187.864 48.9901 185.716 48.4671 183.776 47.4702" fill="#64DD17"/>
<path d="M211.973 23.401C210.923 22.4829 210.399 21.0937 210.405 19.2275H215.257C215.208 19.7859 215.353 20.3442 215.669 20.8075C215.864 20.988 216.097 21.1245 216.35 21.2078C216.603 21.2911 216.87 21.3193 217.135 21.2904C217.405 21.3184 217.677 21.2905 217.936 21.2085C218.194 21.1264 218.433 20.9919 218.637 20.8135C218.976 20.3619 219.137 19.8019 219.09 19.2395H223.943C223.943 21.0798 223.402 22.461 222.321 23.3831C221.24 24.3053 219.51 24.7604 217.129 24.7485C214.745 24.7485 213.026 24.2834 211.973 23.3533M206.405 26.0065H213.558V37.7101L221.034 26.0303H227.895L227.842 48.5314H220.688L220.718 36.8635L213.242 48.5731H206.351L206.405 26.0065Z" fill="#64DD17"/>
<path d="M254 26.1739L253.952 48.6749H246.799V32.0406H241.857L241.791 34.6401C241.757 37.292 241.502 39.9365 241.028 42.5459C240.742 44.3018 239.991 45.9489 238.852 47.3156C237.821 48.4603 234.554 49.1042 231.341 48.5974L231.728 42.528C232.599 42.4445 233.481 42.4445 234.274 41.5263C234.778 40.812 235.066 39.9674 235.102 39.0938C235.251 38.0266 235.359 36.6195 235.424 34.8845L235.722 26.1143L254 26.1739Z" fill="#64DD17"/>
</g>
<defs>
<clipPath id="clip0_113_2">
<rect width="254" height="51" fill="white"/>
</clipPath>
</defs>
</svg>
