<svg width="48" height="50" viewBox="0 0 48 50" fill="none" xmlns="http://www.w3.org/2000/svg">
<g clip-path="url(#clip0_128_31)">
<path fill-rule="evenodd" clip-rule="evenodd" d="M36.8216 18.6527C33.9245 8.64544 24.6852 4.74023 14.0944 4.74023C11.5859 4.79293 9.084 5.02463 6.60695 5.43365C5.93579 5.53136 1.00982 6.45802 0.335581 6.75115C0 6.88983 0.203196 6.78897 0 6.98754C2.5615 8.45318 4.18091 11.5736 5.39393 14.798C6.67776 17.9719 7.7584 21.0955 9.23619 24.0299C11.8685 29.1486 17.9367 33.4856 25.9629 33.4856C30.5502 33.4856 32.6407 32.9025 36.7569 31.6354C35.4085 31.5346 34.531 31.73 33.0625 31.4369C31.0374 31.031 29.1257 30.1698 27.4653 28.9153C25.8428 27.7428 25.3749 27.1566 24.2943 25.9336C22.3208 23.8786 19.8947 19.0972 19.4884 16.3077C22.0529 16.7017 22.7918 16.2132 26.3047 17.3352C29.9406 18.5109 32.9824 21.1932 34.9251 24.3703C35.8491 25.8097 36.6182 27.3473 37.2188 28.9563C37.2741 29.077 37.3423 29.1912 37.422 29.2967L37.6898 29.5426C38.1762 26.3717 37.6344 21.5872 36.8216 18.6527ZM21.9144 31.6449C15.5106 30.2738 11.7361 26.3717 9.23619 21.1932C8.75898 20.0711 7.27811 16.894 7.14573 15.6773C7.55212 16.4559 7.95236 17.4329 8.42956 18.3123C12.8783 26.6144 15.9817 24.0709 18.9527 26.9517C19.9625 27.9319 21.3818 29.8357 21.9144 31.6449Z" fill="black"/>
<path fill-rule="evenodd" clip-rule="evenodd" d="M34.2598 10.451L35.0695 11.5258C35.7437 8.78997 37.1599 6.6908 38.5761 5.0329C37.7664 6.78851 35.8053 9.61892 36.0146 12.6479C36.0793 13.2783 36.418 13.5935 36.6889 14.1135C37.202 15.0219 37.6091 15.9888 37.9019 16.9944C37.9696 16.9471 37.9696 16.8494 38.0374 16.8967L39.0503 15.0055C39.3181 14.517 39.7892 13.6376 40.2602 13.294C42.0828 15.2986 43.499 21.3535 42.1506 25.1105C41.7472 26.283 41.0053 27.5532 40.331 28.1395C41.9474 27.5091 44.6412 24.7701 45.5895 23.4116C47.25 21.1804 48.1508 18.4536 48.1541 15.6485C48.0833 9.57164 42.8925 4.48762 43.6345 -0.240234C42.4184 0.248311 39.3858 3.17643 38.2375 4.39621C36.8921 5.90913 35.2049 8.10916 34.2598 10.451Z" fill="black"/>
<path fill-rule="evenodd" clip-rule="evenodd" d="M37.2954 30.8599C37.2954 28.6536 34.4599 25.051 32.6404 23.5853C30.1175 21.4673 26.93 20.3576 23.6689 20.4618C24.2785 23.3994 26.7846 26.6616 28.324 28.1272C30.4791 30.2737 33.25 31.692 37.2954 30.8599Z" fill="black"/>
<path fill-rule="evenodd" clip-rule="evenodd" d="M39.3866 28.5652C40.8706 27.6858 41.748 25.1485 41.8835 23.0494C41.9481 21.2906 41.0707 17.7762 39.9931 16.9473C37.9027 19.1536 38.7616 19.2387 39.1157 21.8768C39.3866 24.2187 39.3189 26.1729 39.3866 28.5652Z" fill="black"/>
<path d="M6.70552 43.5711C6.53411 43.5768 6.36342 43.5459 6.20437 43.4802C6.04532 43.4145 5.90143 43.3156 5.7819 43.1897C5.55452 42.9002 5.43056 42.5399 5.43056 42.1685C5.43056 41.797 5.55452 41.4367 5.7819 41.1472C5.90143 41.0213 6.04532 40.9224 6.20437 40.8567C6.36342 40.791 6.53411 40.7601 6.70552 40.7659C6.94198 40.7705 7.17403 40.8322 7.3827 40.9462C7.59138 41.0601 7.77077 41.223 7.90622 41.4215L9.06691 40.3593C8.79906 39.9946 8.44381 39.7069 8.03553 39.524C7.58742 39.3233 7.10217 39.2244 6.61316 39.234C6.06946 39.2238 5.53187 39.3528 5.04916 39.6091C4.59685 39.8427 4.21804 40.2021 3.95621 40.6461C3.68851 41.106 3.551 41.6331 3.55906 42.1685C3.54952 42.702 3.68718 43.2275 3.95621 43.6845C4.21594 44.1318 4.59516 44.4938 5.04916 44.7278C5.53293 44.9812 6.06979 45.11 6.61316 45.1029C7.10191 45.1096 7.58657 45.0108 8.03553 44.8129C8.44316 44.6289 8.79816 44.3414 9.06691 43.9777L7.90622 42.9155C7.77025 43.1134 7.59074 43.2759 7.38218 43.3897C7.17361 43.5036 6.94183 43.5657 6.70552 43.5711Z" fill="black"/>
<path d="M13.6508 39.3604L11.7666 42.279V39.3604H9.9502V44.9707H11.6989L13.5769 42.0615V44.9707H15.3934V39.3604H13.6508Z" fill="black"/>
<path d="M16.29 39.3604V40.8291H17.8971V44.9707H19.7044V40.8291H21.3114V39.3604H16.29Z" fill="black"/>
<path d="M25.9265 39.3604L24.0393 42.279V39.3604H22.2197V44.9707H23.9684L25.8465 42.0615V44.9707H27.6629V39.3604H25.9265Z" fill="black"/>
<path d="M34.4813 40.6528C34.2129 40.2094 33.8319 39.8488 33.3791 39.6095C32.8842 39.3608 32.3403 39.2314 31.789 39.2314C31.2377 39.2314 30.6937 39.3608 30.1988 39.6095C29.7435 39.8452 29.3617 40.2066 29.0966 40.6528C28.8326 41.1112 28.6934 41.6336 28.6934 42.1657C28.6934 42.6978 28.8326 43.2202 29.0966 43.6786C29.3617 44.1248 29.7435 44.4862 30.1988 44.7219C30.6937 44.9706 31.2377 45.1 31.789 45.1C32.3403 45.1 32.8842 44.9706 33.3791 44.7219C33.7175 44.5339 34.0153 44.2781 34.255 43.9697C34.4947 43.6613 34.6712 43.3067 34.7741 42.9269C34.8769 42.5471 34.904 42.1501 34.8537 41.7594C34.8034 41.3686 34.6768 40.9923 34.4813 40.6528ZM32.8527 42.9064C32.7504 43.107 32.5973 43.2758 32.4093 43.3949C32.224 43.5107 32.0106 43.5708 31.7936 43.5683C31.5734 43.5725 31.3567 43.5125 31.1686 43.3953C30.9805 43.2781 30.8289 43.1085 30.7314 42.9064C30.6219 42.6756 30.5651 42.4223 30.5651 42.1657C30.5651 41.9091 30.6219 41.6558 30.7314 41.425C30.8278 41.2222 30.9797 41.0525 31.1686 40.9365C31.3544 40.8219 31.5675 40.762 31.7843 40.7631C32.0014 40.7606 32.2148 40.8207 32.4001 40.9365C32.5894 41.0539 32.743 41.2231 32.8434 41.425C32.9529 41.6558 33.0098 41.9091 33.0098 42.1657C33.0098 42.4223 32.9529 42.6756 32.8434 42.9064H32.8527Z" fill="black"/>
<path d="M39.1428 37.665C39.1554 37.806 39.1134 37.9464 39.0258 38.0559C38.9196 38.1446 38.7834 38.1865 38.6471 38.1725C38.5805 38.1798 38.5132 38.1733 38.4492 38.1532C38.3851 38.1332 38.3257 38.1001 38.2746 38.0559C38.1966 37.9419 38.1596 37.8038 38.1699 37.665H36.9384C36.9244 37.8562 36.9532 38.0481 37.0225 38.2261C37.0919 38.4042 37.2 38.5637 37.3386 38.6926C37.7214 38.9595 38.1828 39.0821 38.644 39.0393C39.109 39.0806 39.5738 38.9583 39.9617 38.6926C40.1014 38.5643 40.2107 38.4051 40.2811 38.227C40.3516 38.0489 40.3813 37.8567 40.3681 37.665H39.1428ZM39.6354 39.3608L37.7481 42.2794V39.3608H35.9316V44.9712H37.6804L39.5584 42.0619V44.9712H41.3718V39.3608H39.6354Z" fill="black"/>
<path d="M43.3605 39.3604L43.2897 41.5478C43.2828 41.8978 43.2571 42.2471 43.2128 42.5942C43.2047 42.815 43.1317 43.0281 43.0034 43.2057C42.9202 43.2925 42.8196 43.3597 42.7084 43.4027C42.5973 43.4457 42.4784 43.4634 42.3599 43.4547L42.2676 44.9707C43.0773 45.0937 43.9085 44.9298 44.1672 44.6556C44.455 44.3146 44.6457 43.8992 44.7182 43.4547C44.8349 42.8046 44.8977 42.1456 44.9061 41.4847V40.8544H46.1806V44.996H47.9971V39.3856L43.3605 39.3604Z" fill="black"/>
</g>
<defs>
<clipPath id="clip0_128_31">
<rect width="48" height="50" fill="white"/>
</clipPath>
</defs>
</svg>
