<svg width="70" height="70" viewBox="0 0 70 70" fill="none" xmlns="http://www.w3.org/2000/svg">
<path d="M34.9997 18.958C36.9335 18.958 38.7882 19.7262 40.1557 21.0937C41.5231 22.4611 42.2913 24.3158 42.2913 26.2497C42.2913 27.2072 42.1027 28.1554 41.7363 29.0401C41.3699 29.9247 40.8328 30.7286 40.1557 31.4057C39.4786 32.0828 38.6747 32.6199 37.7901 32.9863C36.9054 33.3527 35.9572 33.5413 34.9997 33.5413C33.0658 33.5413 31.2111 32.7731 29.8437 31.4057C28.4762 30.0382 27.708 28.1835 27.708 26.2497C27.708 24.3158 28.4762 22.4611 29.8437 21.0937C31.2111 19.7262 33.0658 18.958 34.9997 18.958ZM34.9997 5.83301C40.4145 5.83301 45.6076 7.98404 49.4364 11.8129C53.2653 15.6418 55.4163 20.8348 55.4163 26.2497C55.4163 41.5622 34.9997 64.1663 34.9997 64.1663C34.9997 64.1663 14.583 41.5622 14.583 26.2497C14.583 20.8348 16.734 15.6418 20.5629 11.8129C24.3918 7.98404 29.5848 5.83301 34.9997 5.83301ZM34.9997 11.6663C31.1319 11.6663 27.4226 13.2028 24.6877 15.9377C21.9528 18.6726 20.4163 22.3819 20.4163 26.2497C20.4163 29.1663 20.4163 34.9997 34.9997 54.5705C49.583 34.9997 49.583 29.1663 49.583 26.2497C49.583 22.3819 48.0466 18.6726 45.3116 15.9377C42.5767 13.2028 38.8674 11.6663 34.9997 11.6663Z" fill="#FABA00"/>
</svg>
