<svg width="71" height="70" viewBox="0 0 71 70" fill="none" xmlns="http://www.w3.org/2000/svg">
<path d="M12 58.3333H32.2504M32.2504 58.3333H32.5829M32.2504 58.3333C26.8644 58.2895 21.714 56.1191 17.921 52.295C14.128 48.4708 11.9998 43.3028 12 37.9167V26.0254C12 24.5379 13.2046 23.3333 14.6921 23.3333H50.1413C51.6288 23.3333 52.8333 24.5379 52.8333 26.0254V26.25M32.5829 58.3333H52.8333M32.5829 58.3333C37.9689 58.2895 43.1193 56.1191 46.9123 52.295C50.7053 48.4708 52.8335 43.3028 52.8333 37.9167M52.8333 26.25H57.2083C59.1422 26.25 60.9969 27.0182 62.3643 28.3857C63.7318 29.7531 64.5 31.6078 64.5 33.5417C64.5 35.4755 63.7318 37.3302 62.3643 38.6977C60.9969 40.0651 59.1422 40.8333 57.2083 40.8333H52.8333V37.9167M52.8333 26.25V37.9167M44.0833 8.75L41.1667 14.5833M35.3333 8.75L32.4167 14.5833M26.5833 8.75L23.6667 14.5833" stroke="#FABA00" stroke-width="5" stroke-linecap="round" stroke-linejoin="round"/>
</svg>
