<svg width="71" height="70" viewBox="0 0 71 70" fill="none" xmlns="http://www.w3.org/2000/svg">
<path d="M35.1673 36.458C32.4599 36.458 29.8634 37.5335 27.9489 39.448C26.0345 41.3624 24.959 43.9589 24.959 46.6663C24.959 49.3738 26.0345 51.9703 27.9489 53.8847C29.8634 55.7992 32.4599 56.8747 35.1673 56.8747C37.8747 56.8747 40.4713 55.7992 42.3857 53.8847C44.3001 51.9703 45.3756 49.3738 45.3756 46.6663C45.3756 43.9589 44.3001 41.3624 42.3857 39.448C40.4713 37.5335 37.8747 36.458 35.1673 36.458ZM30.7923 46.6663C30.7923 45.506 31.2533 44.3932 32.0737 43.5727C32.8942 42.7523 34.007 42.2913 35.1673 42.2913C36.3276 42.2913 37.4404 42.7523 38.2609 43.5727C39.0814 44.3932 39.5423 45.506 39.5423 46.6663C39.5423 47.8267 39.0814 48.9395 38.2609 49.7599C37.4404 50.5804 36.3276 51.0413 35.1673 51.0413C34.007 51.0413 32.8942 50.5804 32.0737 49.7599C31.2533 48.9395 30.7923 47.8267 30.7923 46.6663Z" fill="#FABA00"/>
<path d="M51.2845 14.9215L42.0124 1.92188L7.91949 29.1577L6.02949 29.1373V29.1665H4.54199V64.1665H65.792V29.1665H62.9862L57.4037 12.836L51.2845 14.9215ZM56.8232 29.1665H27.5749L49.3595 21.7406L53.7987 20.3202L56.8232 29.1665ZM45.5212 16.8873L23.0337 24.5523L40.8428 10.3248L45.5212 16.8873ZM10.3753 52.9927V40.3344C11.6067 39.8998 12.7251 39.1951 13.6487 38.2721C14.5723 37.349 15.2776 36.2309 15.7128 34.9998H54.6212C55.056 36.2314 55.7612 37.3501 56.6848 38.2737C57.6084 39.1973 58.727 39.9024 59.9587 40.3373V52.9956C58.727 53.4305 57.6084 54.1356 56.6848 55.0592C55.7612 55.9828 55.056 57.1015 54.6212 58.3331H15.7187C15.2817 57.1014 14.5752 55.9827 13.6508 55.0588C12.7264 54.1349 11.6073 53.429 10.3753 52.9927Z" fill="#FABA00"/>
</svg>
