<svg width="70" height="70" viewBox="0 0 70 70" fill="none" xmlns="http://www.w3.org/2000/svg">
<path d="M34.9998 3.14453C25.1984 3.14453 17.2264 11.1166 17.2264 20.918C17.2264 30.7193 25.1984 38.6914 34.9998 38.6914C44.8012 38.6914 52.7732 30.7193 52.7732 20.918C52.7732 11.1166 44.8012 3.14453 34.9998 3.14453ZM33.8609 7.40018L32.2512 12.219L39.3804 11.4721L38.6714 9.08537L40.6708 9.63895V12.2868L43.7938 12.4905L43.183 10.1143L44.8246 9.16357C48.1809 11.9701 50.3123 16.1898 50.3123 20.918C50.3123 23.1968 49.8167 25.3574 48.928 27.2989L45.3556 27.9035V32.2071C44.6741 32.8325 43.9375 33.3949 43.1545 33.8874L41.6211 31.5019L38.6335 32.3168L39.473 35.5688C38.0227 36.0087 36.5153 36.2317 34.9998 36.2305C30.7598 36.2305 26.9283 34.5167 24.1584 31.7425L26.8873 31.3663L28.7207 27.7676L22.8812 24.8481L27.0231 21.3172L23.4247 18.3299L19.7479 19.5553C20.1733 14.7089 22.845 10.5178 26.7197 8.02744L27.4985 14.2558L33.8609 7.40018ZM39.1766 16.1798L34.2315 19.3484L38.5526 23.1893L41.6735 22.2771L41.3853 26.022L47.0987 24.5816L44.938 19.6846L41.4814 19.7326L44.5541 17.092L39.1767 16.1798H39.1766ZM34.0396 21.701L31.3989 22.8531L33.2713 24.2454L34.0396 21.701ZM27.8378 22.1322L26.0047 24.3046L31.0834 27.8741L27.8378 22.1322ZM36.0081 23.3332L34.1357 26.8383L38.6488 29.9109L37.0643 27.6542L39.0327 25.3017L36.0081 23.3332ZM8.22618 27.0787C7.02059 27.0599 5.7867 28.5953 5.77959 32.5313C5.76893 38.5678 5.18405 40.2717 7.97762 47.0988C10.0261 52.1052 10.9447 55.9531 17.4998 59.0625C18.2764 61.7999 17.9664 62.4436 17.4397 64.7828C16.948 66.9668 22.0092 67.3682 25.7158 65.5283C29.6931 63.3589 29.3593 57.3858 28.6488 53.3352C27.8225 48.6247 25.2226 47.6457 22.9691 45.6336C20.6292 42.2874 20.0846 36.2255 16.2896 33.7802C15.497 33.2696 11.4538 32.7511 17.009 46.6238C9.68483 44.8098 11.0189 36.401 10.4893 30.1752C10.3315 28.3212 9.28985 27.0949 8.22618 27.0785V27.0787ZM61.7734 27.0787C60.7098 27.0951 59.6681 28.3212 59.5103 30.1753C58.9807 36.401 60.3148 44.8098 52.9906 46.6238C58.5459 32.751 54.5026 33.2696 53.71 33.7802C49.915 36.2255 49.3706 42.2874 47.0305 45.6337C44.7771 47.6457 42.177 48.6247 41.3508 53.3352C40.6403 57.3858 40.3065 63.3589 44.2838 65.5283C47.9904 67.368 53.0516 66.9668 52.5598 64.7828C52.0332 62.4436 51.7232 61.7999 52.4998 59.0625C59.0549 55.9531 59.9735 52.1052 62.022 47.0988C64.8156 40.2717 64.2307 38.5678 64.22 32.5314C64.2129 28.5953 62.979 27.0599 61.7734 27.0787Z" fill="#FABA00"/>
</svg>
