<svg width="61" height="60" viewBox="0 0 61 60" fill="none" xmlns="http://www.w3.org/2000/svg">
<path d="M20.5 7.5C21.75 7.5 26.75 18.75 26.75 20C26.75 22.5 23 25 21.75 27.5C20.5 30 23 32.5 25.5 35C26.475 35.975 30.5 40 33 38.75C35.5 37.5 38 33.75 40.5 33.75C41.75 33.75 53 38.75 53 40C53 45 49.25 48.75 45.5 50C41.75 51.25 39.25 51.25 34.25 50C29.25 48.75 25.5 47.5 19.25 41.25C13 35 11.75 31.25 10.5 26.25C9.25 21.25 9.25 18.75 10.5 15C11.75 11.25 15.5 7.5 20.5 7.5Z" stroke="white" stroke-width="4" stroke-linecap="round" stroke-linejoin="round"/>
<path d="M35.5 17.5996C37.15 18.3746 38.65 19.4246 39.9 20.6996C41.125 21.9246 42.15 23.3996 42.9 24.9996" stroke="white" stroke-width="4" stroke-linecap="round" stroke-linejoin="round" stroke-dasharray="4 4"/>
<path d="M38 8.125C41.525 9.05 44.675 10.875 47.175 13.375C49.65 15.875 51.475 19 52.375 22.5" stroke="white" stroke-width="4" stroke-linecap="round" stroke-linejoin="round" stroke-dasharray="6 6"/>
</svg>
