<svg width="61" height="60" viewBox="0 0 61 60" fill="none" xmlns="http://www.w3.org/2000/svg">
<path d="M41.6579 22.1146L38.9329 39.5621C38.8954 39.8026 38.7986 40.0301 38.6514 40.224C38.5043 40.4179 38.3112 40.5723 38.0896 40.6731C37.8681 40.774 37.6249 40.8183 37.382 40.8019C37.1391 40.7856 36.904 40.7092 36.6979 40.5796L27.5729 34.8621C27.3833 34.7435 27.2232 34.5831 27.1049 34.3932C26.9866 34.2033 26.9132 33.9889 26.8903 33.7664C26.8674 33.5439 26.8956 33.319 26.9727 33.109C27.0499 32.899 27.1739 32.7094 27.3354 32.5546L34.9104 25.2946C34.9954 25.2146 34.8954 25.0821 34.7954 25.1421L23.8154 31.7121C23.1628 32.1045 22.3878 32.2408 21.6404 32.0946L17.6654 31.3271C16.2304 31.0496 16.0329 29.0796 17.3804 28.5221L38.6354 19.7346C38.9975 19.584 39.3932 19.5326 39.7818 19.5858C40.1704 19.6391 40.5377 19.795 40.8459 20.0375C41.1541 20.28 41.3921 20.6003 41.5353 20.9654C41.6784 21.3305 41.7217 21.7272 41.6604 22.1146" fill="white"/>
<path fill-rule="evenodd" clip-rule="evenodd" d="M30.4996 4.26465C16.2871 4.26465 4.76465 15.7871 4.76465 29.9996C4.76465 44.2121 16.2871 55.7347 30.4996 55.7347C44.7121 55.7347 56.2347 44.2121 56.2347 29.9996C56.2347 15.7871 44.7121 4.26465 30.4996 4.26465ZM9.17465 29.9996C9.17465 27.1992 9.72624 24.4262 10.7979 21.8389C11.8696 19.2517 13.4404 16.9008 15.4206 14.9206C17.4008 12.9404 19.7517 11.3696 22.3389 10.2979C24.9262 9.22624 27.6992 8.67465 30.4996 8.67465C33.3001 8.67465 36.0731 9.22624 38.6604 10.2979C41.2476 11.3696 43.5985 12.9404 45.5787 14.9206C47.5589 16.9008 49.1297 19.2517 50.2014 21.8389C51.2731 24.4262 51.8247 27.1992 51.8247 29.9996C51.8247 35.6554 49.5779 41.0795 45.5787 45.0787C41.5795 49.0779 36.1554 51.3247 30.4996 51.3247C24.8439 51.3247 19.4198 49.0779 15.4206 45.0787C11.4214 41.0795 9.17465 35.6554 9.17465 29.9996Z" fill="white"/>
</svg>
