<svg width="61" height="60" viewBox="0 0 61 60" fill="none" xmlns="http://www.w3.org/2000/svg">
<path d="M47.792 12.2751C45.4997 9.9604 42.7695 8.12505 39.7608 6.87604C36.752 5.62703 33.5247 4.98934 30.267 5.00013C16.617 5.00013 5.49199 16.1251 5.49199 29.7751C5.49199 34.1501 6.64199 38.4001 8.79199 42.1501L5.29199 55.0001L18.417 51.5501C22.042 53.5251 26.117 54.5751 30.267 54.5751C43.917 54.5751 55.042 43.4501 55.042 29.8001C55.042 23.1751 52.467 16.9501 47.792 12.2751ZM30.267 50.3751C26.567 50.3751 22.942 49.3751 19.767 47.5001L19.017 47.0501L11.217 49.1001L13.292 41.5001L12.792 40.7251C10.7359 37.4428 9.6443 33.6483 9.64199 29.7751C9.64199 18.4251 18.892 9.17513 30.242 9.17513C35.742 9.17513 40.917 11.3251 44.792 15.2251C46.711 17.1348 48.2318 19.4065 49.2661 21.9085C50.3003 24.4104 50.8275 27.0928 50.817 29.8001C50.867 41.1501 41.617 50.3751 30.267 50.3751ZM41.567 34.9751C40.942 34.6751 37.892 33.1751 37.342 32.9501C36.767 32.7501 36.367 32.6501 35.942 33.2501C35.517 33.8751 34.342 35.2751 33.992 35.6751C33.642 36.1001 33.267 36.1501 32.642 35.8251C32.017 35.5251 30.017 34.8501 27.667 32.7501C25.817 31.1001 24.592 29.0751 24.217 28.4501C23.867 27.8251 24.167 27.5001 24.492 27.1751C24.767 26.9001 25.117 26.4501 25.417 26.1001C25.717 25.7501 25.842 25.4751 26.042 25.0751C26.242 24.6501 26.142 24.3001 25.992 24.0001C25.842 23.7001 24.592 20.6501 24.092 19.4001C23.592 18.2001 23.067 18.3501 22.692 18.3251H21.492C21.067 18.3251 20.417 18.4751 19.842 19.1001C19.292 19.7251 17.692 21.2251 17.692 24.2751C17.692 27.3251 19.917 30.2751 20.217 30.6751C20.517 31.1001 24.592 37.3501 30.792 40.0251C32.267 40.6751 33.417 41.0501 34.317 41.3251C35.792 41.8001 37.142 41.7251 38.217 41.5751C39.417 41.4001 41.892 40.0751 42.392 38.6251C42.917 37.1751 42.917 35.9501 42.742 35.6751C42.567 35.4001 42.192 35.2751 41.567 34.9751Z" fill="white"/>
</svg>
